<?xml version="1.0" standalone="no"?><!DOCTYPE svg PUBLIC "-//W3C//DTD SVG 1.1//EN" "http://www.w3.org/Graphics/SVG/1.1/DTD/svg11.dtd"><svg t="1489633314583" class="icon" style="" viewBox="0 0 1024 1024" version="1.1" xmlns="http://www.w3.org/2000/svg" p-id="1859" xmlns:xlink="http://www.w3.org/1999/xlink" width="128" height="128"><defs><style type="text/css"></style></defs><path d="M925.853679 887.775432l-824.559669 0c-19.799952 0-35.850509-16.050558-35.850509-35.850509L65.443501 170.767292c0-19.799952 16.050558-35.850509 35.850509-35.850509l824.559669 0c19.799952 0 35.850509 16.050558 35.850509 35.850509l0 681.157631C961.704189 871.724875 945.653631 887.775432 925.853679 887.775432zM925.853679 170.767292l-824.559669 0 0 462.97033c43.991933-73.217558 124.135228-122.391515 216.009705-122.391515 115.617228 0 212.797547 77.724199 242.391563 183.52178 36.682457-66.629513 107.712187-111.820762 189.365882-111.820762 73.244164 0 137.832182 36.402071 176.792519 92.003414L925.853679 170.767292zM925.853679 762.29865l-0.505513 0c-16.670681-81.8164-89.252767-143.402037-176.287005-143.402037-87.030146 0-159.615301 61.585637-176.285982 143.402037l-39.59274 0c0-118.797663-96.652294-215.103056-215.878722-215.103056-119.227452 0-215.880769 96.305393-215.880769 215.103056l-0.128937 0 0 89.626273 824.559669 0L925.853679 762.29865zM719.713762 439.645089c-44.549635 0-80.663134-36.113499-80.663134-80.663134s36.113499-80.663134 80.663134-80.663134 80.663134 36.113499 80.663134 80.663134S764.263397 439.645089 719.713762 439.645089zM719.713762 314.168306c-24.749684 0-44.812625 20.063965-44.812625 44.812625s20.063965 44.812625 44.812625 44.812625 44.812625-20.063965 44.812625-44.812625S744.463446 314.168306 719.713762 314.168306z" p-id="1860" fill="#bfbfbf"></path></svg>